<?xml version="1.0" encoding="UTF-8" standalone="no"?>
<!DOCTYPE svg PUBLIC "-//W3C//DTD SVG 1.1//EN"
 "http://www.w3.org/Graphics/SVG/1.1/DTD/svg11.dtd">
<!-- Generated by graphviz version 2.38.0 (20140413.2041)
 -->
<!-- Title: G Pages: 1 -->
<svg width="755pt" height="458pt"
 viewBox="0.00 0.00 754.56 458.00" xmlns="http://www.w3.org/2000/svg" xmlns:xlink="http://www.w3.org/1999/xlink">
<g id="graph0" class="graph" transform="scale(1 1) rotate(0) translate(4 454)">
<title>G</title>
<polygon fill="white" stroke="none" points="-4,4 -4,-454 750.558,-454 750.558,4 -4,4"/>
<g id="clust2" class="cluster"><title>cluster0</title>
<polygon fill="none" stroke="#7a67ee" points="16.4435,-205 16.4435,-442 738.558,-442 738.558,-205 16.4435,-205"/>
<text text-anchor="middle" x="57.9435" y="-426.8" font-family="Times,serif" font-size="14.00" fill="#473c8b">Application</text>
</g>
<g id="clust3" class="cluster"><title>cluster1</title>
<polygon fill="none" stroke="#7a67ee" points="31.4435,-8 31.4435,-97 560.666,-97 560.666,-8 31.4435,-8"/>
<text text-anchor="middle" x="52.9435" y="-81.8" font-family="Times,serif" font-size="14.00" fill="#473c8b">User</text>
</g>
<!-- 0 -->
<g id="node1" class="node"><title>0</title>
<ellipse fill="none" stroke="#cd5b45" cx="73.4435" cy="-143" rx="73.387" ry="18"/>
<text text-anchor="middle" x="73.4435" y="-139.3" font-family="Times,serif" font-size="14.00" fill="#8b3e2f">Application Start</text>
</g>
<!-- 1 -->
<g id="node3" class="node"><title>1</title>
<ellipse fill="none" stroke="#cd5b45" cx="279.431" cy="-329" rx="27" ry="18"/>
<text text-anchor="middle" x="279.431" y="-325.3" font-family="Times,serif" font-size="14.00" fill="#8b3e2f">Idle</text>
</g>
<!-- 0&#45;&gt;1 -->
<g id="edge2" class="edge"><title>0&#45;&gt;1</title>
<path fill="none" stroke="darkgreen" d="M97.095,-160.225C109.8,-170.08 126.004,-182.965 143.866,-198.421"/>
<polygon fill="darkgreen" stroke="darkgreen" points="141.785,-201.251 151.617,-205.2 146.394,-195.982 141.785,-201.251"/>
<text text-anchor="middle" x="111.452" y="-171.258" font-family="Times,serif" font-size="14.00" fill="darkgreen">Start</text>
</g>
<!-- 7 -->
<g id="node8" class="node"><title>7</title>
<ellipse fill="none" stroke="#cd5b45" cx="279.431" cy="-41" rx="69.5877" ry="18"/>
<text text-anchor="middle" x="279.431" y="-37.3" font-family="Times,serif" font-size="14.00" fill="#8b3e2f">Trial(count: Int)</text>
</g>
<!-- 0&#45;&gt;7 -->
<g id="edge11" class="edge"><title>0&#45;&gt;7</title>
<path fill="none" stroke="darkgreen" d="M106.766,-126.838C121.176,-119.632 139.14,-110.65 157.973,-101.233"/>
<polygon fill="darkgreen" stroke="darkgreen" points="159.597,-104.334 166.976,-96.731 156.466,-98.073 159.597,-104.334"/>
<text text-anchor="middle" x="123.377" y="-100.581" font-family="Times,serif" font-size="14.00" fill="darkgreen">Start</text>
</g>
<!-- appStart -->
<!-- appStart&#45;&gt;1 -->
<g id="edge1" class="edge"><title>appStart&#45;&gt;1</title>
<path fill="none" stroke="darkgreen" d="M100.694,-329C136.725,-329 201.65,-329 242.263,-329"/>
<polygon fill="darkgreen" stroke="darkgreen" points="242.281,-332.5 252.281,-329 242.281,-325.5 242.281,-332.5"/>
<text text-anchor="middle" x="178.387" y="-332.8" font-family="Times,serif" font-size="14.00" fill="darkgreen">Start</text>
</g>
<!-- 2 -->
<g id="node4" class="node"><title>2</title>
<ellipse fill="none" stroke="#00c5cd" cx="494.32" cy="-266" rx="35.9954" ry="18"/>
<text text-anchor="middle" x="494.32" y="-262.3" font-family="Times,serif" font-size="14.00" fill="#00868b">Saving</text>
</g>
<!-- 1&#45;&gt;2 -->
<g id="edge4" class="edge"><title>1&#45;&gt;2</title>
<path fill="none" stroke="blue" d="M292.715,-312.97C307.861,-294.667 335.493,-265.743 366.975,-254 395.041,-243.531 428.931,-247.566 454.543,-253.652"/>
<polygon fill="blue" stroke="blue" points="453.715,-257.053 464.272,-256.155 455.459,-250.274 453.715,-257.053"/>
<text text-anchor="middle" x="395.975" y="-257.8" font-family="Times,serif" font-size="14.00" fill="#0000cd">Save</text>
</g>
<!-- 3 -->
<g id="node5" class="node"><title>3</title>
<ellipse fill="none" stroke="#00c5cd" cx="494.32" cy="-320" rx="51.1914" ry="18"/>
<text text-anchor="middle" x="494.32" y="-316.3" font-family="Times,serif" font-size="14.00" fill="#00868b">Purchasing</text>
</g>
<!-- 1&#45;&gt;3 -->
<g id="edge3" class="edge"><title>1&#45;&gt;3</title>
<path fill="none" stroke="blue" d="M304.609,-335.867C333.425,-343.086 382.96,-352.443 424.975,-345 434.111,-343.381 443.63,-340.634 452.559,-337.539"/>
<polygon fill="blue" stroke="blue" points="453.793,-340.815 461.972,-334.081 451.379,-334.244 453.793,-340.815"/>
<text text-anchor="middle" x="395.975" y="-351.8" font-family="Times,serif" font-size="14.00" fill="#0000cd">Purchase</text>
</g>
<!-- 2&#45;&gt;1 -->
<g id="edge5" class="edge"><title>2&#45;&gt;1</title>
<path fill="none" stroke="darkgreen" d="M462.901,-275.002C423.538,-286.65 355.165,-306.884 314.222,-319"/>
<polygon fill="darkgreen" stroke="darkgreen" points="313.034,-315.702 304.438,-321.896 315.02,-322.414 313.034,-315.702"/>
<text text-anchor="middle" x="395.975" y="-307.8" font-family="Times,serif" font-size="14.00" fill="darkgreen">Saved</text>
</g>
<!-- 4 -->
<g id="node6" class="node"><title>4</title>
<ellipse fill="none" stroke="#00c5cd" cx="667.612" cy="-320" rx="40.8928" ry="18"/>
<text text-anchor="middle" x="667.612" y="-316.3" font-family="Times,serif" font-size="14.00" fill="#00868b">Alerting</text>
</g>
<!-- 2&#45;&gt;4 -->
<g id="edge8" class="edge"><title>2&#45;&gt;4</title>
<path fill="none" stroke="red" d="M525.673,-275.216C548.524,-282.193 580.602,-292.067 608.666,-301 613.899,-302.666 619.391,-304.437 624.821,-306.202"/>
<polygon fill="red" stroke="red" points="623.869,-309.572 634.461,-309.348 626.041,-302.918 623.869,-309.572"/>
<text text-anchor="middle" x="588.666" y="-304.8" font-family="Times,serif" font-size="14.00" fill="red">Failure</text>
</g>
<!-- 2&#45;&gt;7 -->
<g id="edge14" class="edge"><title>2&#45;&gt;7</title>
<path fill="none" stroke="darkgreen" d="M450.112,-205.286C442.068,-194.922 433.502,-184.458 424.975,-175 402.804,-150.409 376.743,-125.265 352.901,-103.498"/>
<polygon fill="darkgreen" stroke="darkgreen" points="355.004,-100.68 345.245,-96.5543 350.301,-105.865 355.004,-100.68"/>
<text text-anchor="middle" x="382.631" y="-137.543" font-family="Times,serif" font-size="14.00" fill="darkgreen">Saved</text>
</g>
<!-- 3&#45;&gt;1 -->
<g id="edge6" class="edge"><title>3&#45;&gt;1</title>
<path fill="none" stroke="darkgreen" d="M443.02,-322.126C404.215,-323.767 351.463,-325.997 316.708,-327.466"/>
<polygon fill="darkgreen" stroke="darkgreen" points="316.378,-323.977 306.535,-327.896 316.674,-330.971 316.378,-323.977"/>
<text text-anchor="middle" x="395.975" y="-329.8" font-family="Times,serif" font-size="14.00" fill="darkgreen">Purchased</text>
</g>
<!-- 3&#45;&gt;4 -->
<g id="edge9" class="edge"><title>3&#45;&gt;4</title>
<path fill="none" stroke="red" d="M545.787,-320C568.022,-320 594.087,-320 616.304,-320"/>
<polygon fill="red" stroke="red" points="616.539,-323.5 626.539,-320 616.539,-316.5 616.539,-323.5"/>
<text text-anchor="middle" x="588.666" y="-323.8" font-family="Times,serif" font-size="14.00" fill="red">Failure</text>
</g>
<!-- 3&#45;&gt;7 -->
<g id="edge15" class="edge"><title>3&#45;&gt;7</title>
<path fill="none" stroke="darkgreen" d="M398.507,-205.478C378.37,-177.003 350.255,-137.824 326.511,-104.846"/>
<polygon fill="darkgreen" stroke="darkgreen" points="329.277,-102.699 320.593,-96.6297 323.597,-106.79 329.277,-102.699"/>
<text text-anchor="middle" x="330.741" y="-139.899" font-family="Times,serif" font-size="14.00" fill="darkgreen">Purchased</text>
</g>
<!-- 4&#45;&gt;1 -->
<g id="edge7" class="edge"><title>4&#45;&gt;1</title>
<path fill="none" stroke="darkgreen" d="M636.657,-331.859C582.514,-351.706 464.889,-387.549 366.975,-367 346.837,-362.774 325.664,-353.571 309.301,-345.281"/>
<polygon fill="darkgreen" stroke="darkgreen" points="310.749,-342.088 300.266,-340.549 307.501,-348.289 310.749,-342.088"/>
<text text-anchor="middle" x="494.32" y="-375.8" font-family="Times,serif" font-size="14.00" fill="darkgreen">Complete</text>
</g>
<!-- userStart -->
<!-- userStart&#45;&gt;7 -->
<g id="edge10" class="edge"><title>userStart&#45;&gt;7</title>
<path fill="none" stroke="darkgreen" d="M100.694,-41C125.668,-41 164.522,-41 199.541,-41"/>
<polygon fill="darkgreen" stroke="darkgreen" points="199.782,-44.5001 209.782,-41 199.782,-37.5001 199.782,-44.5001"/>
<text text-anchor="middle" x="178.387" y="-44.8" font-family="Times,serif" font-size="14.00" fill="darkgreen">Start</text>
</g>
<!-- 7&#45;&gt;1 -->
<g id="edge13" class="edge"><title>7&#45;&gt;1</title>
<path fill="none" stroke="blue" d="M279.431,-96.6987C279.431,-129.442 279.431,-162.185 279.431,-194.928"/>
<polygon fill="blue" stroke="blue" points="275.931,-195.208 279.431,-205.208 282.931,-195.208 275.931,-195.208"/>
<text text-anchor="middle" x="265.431" y="-139.985" font-family="Times,serif" font-size="14.00" fill="#0000cd">Save</text>
</g>
<!-- 6 -->
<g id="node9" class="node"><title>6</title>
<ellipse fill="none" stroke="#cd5b45" cx="494.32" cy="-41" rx="51.1914" ry="18"/>
<text text-anchor="middle" x="494.32" y="-37.3" font-family="Times,serif" font-size="14.00" fill="#8b3e2f">FullAccess</text>
</g>
<!-- 7&#45;&gt;6 -->
<g id="edge12" class="edge"><title>7&#45;&gt;6</title>
<path fill="none" stroke="darkgreen" d="M349.256,-41C376.174,-41 406.777,-41 432.832,-41"/>
<polygon fill="darkgreen" stroke="darkgreen" points="432.949,-44.5001 442.949,-41 432.949,-37.5001 432.949,-44.5001"/>
<text text-anchor="middle" x="395.975" y="-44.8" font-family="Times,serif" font-size="14.00" fill="darkgreen">Purchased</text>
</g>
</g>
</svg>
